<?xml version="1.0" standalone="no"?>
<!DOCTYPE svg PUBLIC "-//W3C//DTD SVG 20010904//EN"
 "http://www.w3.org/TR/2001/REC-SVG-20010904/DTD/svg10.dtd">
<svg version="1.0" xmlns="http://www.w3.org/2000/svg"
 width="512.000000pt" height="512.000000pt" viewBox="0 0 512.000000 512.000000"
 preserveAspectRatio="xMidYMid meet">

<g transform="translate(0.000000,512.000000) scale(0.100000,-0.100000)"
fill="#000000" stroke="none">
<path d="M2743 5099 c-82 -40 -115 -93 -188 -297 -81 -227 -82 -228 -345 -241
-212 -11 -263 -24 -321 -82 -74 -74 -76 -174 -9 -402 22 -76 40 -158 40 -182
0 -56 -23 -84 -159 -189 -182 -139 -233 -207 -233 -306 0 -90 42 -152 182
-265 l81 -65 -818 0 c-865 -1 -864 -1 -915 -47 -11 -10 -29 -36 -39 -58 -18
-38 -19 -103 -19 -1435 0 -1340 1 -1397 19 -1430 10 -19 35 -48 55 -65 l38
-30 205 -3 c201 -3 206 -3 229 19 31 29 32 82 4 107 -17 14 -49 18 -208 22
l-187 5 -3 1374 c-2 1093 0 1376 10 1383 7 4 212 8 456 8 l442 0 0 -679 0
-680 23 -27 c16 -18 34 -27 53 -27 18 0 105 43 236 117 113 64 214 119 222
122 10 4 101 -42 233 -117 134 -75 229 -122 246 -122 16 0 38 9 50 22 22 21
22 27 25 366 l3 345 72 0 c40 0 104 -5 142 -10 108 -15 120 -33 220 -313 83
-234 220 -292 415 -177 28 17 53 30 55 30 3 0 4 -363 3 -808 l-3 -807 -1088
-5 -1089 -5 -19 -24 c-26 -32 -24 -67 6 -96 l24 -25 1088 0 c1034 0 1090 1
1128 19 48 22 69 44 90 94 13 32 15 146 15 901 l0 866 40 20 c77 39 125 24
298 -97 213 -148 321 -159 426 -42 43 48 89 147 140 304 26 80 58 128 97 148
28 13 78 19 220 26 246 12 313 37 362 136 37 75 31 144 -30 350 -41 142 -46
208 -19 248 11 16 76 73 146 127 190 148 224 193 225 300 0 108 -39 159 -256
327 -157 121 -159 127 -94 353 49 168 58 231 45 294 -18 90 -92 156 -190 172
-34 6 -45 3 -65 -16 -25 -24 -33 -72 -17 -98 5 -7 31 -21 58 -31 87 -33 88
-54 22 -291 -62 -219 -57 -298 29 -398 15 -18 84 -77 153 -130 121 -94 170
-147 170 -182 0 -35 -48 -87 -162 -175 -148 -114 -169 -135 -204 -198 -40 -74
-38 -162 9 -322 89 -302 89 -303 -190 -316 -201 -9 -274 -26 -332 -75 -53 -46
-80 -96 -136 -248 -76 -211 -98 -243 -159 -232 -19 4 -91 45 -160 91 -166 112
-217 137 -292 143 -88 7 -142 -15 -305 -124 -153 -102 -202 -124 -238 -105
-27 15 -60 80 -104 207 -45 128 -54 148 -95 212 -37 56 -89 93 -159 112 -24 6
-124 14 -224 19 -157 7 -184 11 -207 28 -42 31 -40 83 8 248 51 173 60 265 35
332 -23 59 -86 128 -190 206 -99 74 -162 133 -181 170 -13 23 -13 31 0 55 19
35 80 92 186 174 217 167 237 236 151 532 -39 131 -50 208 -33 232 18 28 64
37 226 45 94 5 193 13 219 19 128 27 184 96 262 321 47 137 83 201 118 213 35
13 87 -12 212 -99 187 -130 284 -158 395 -116 31 11 120 63 199 116 79 52 159
97 178 101 59 11 85 -27 154 -218 71 -200 119 -267 213 -303 46 -18 48 -18 73
2 59 43 48 108 -22 137 -39 17 -64 53 -96 140 -77 214 -101 267 -145 315 -55
62 -113 86 -183 78 -62 -7 -130 -41 -248 -123 -114 -80 -181 -114 -222 -114
-41 0 -78 20 -235 124 -175 117 -255 139 -343 95z m-823 -2208 c0 -16 -18 -92
-40 -168 -47 -161 -59 -252 -40 -319 16 -55 61 -104 119 -130 l41 -18 0 -273
c0 -150 -2 -273 -5 -273 -3 0 -78 41 -168 92 -89 50 -176 97 -192 104 -38 16
-52 10 -262 -109 -84 -48 -155 -87 -158 -87 -3 0 -5 272 -5 605 l0 605 355 0
355 0 0 -29z"/>
<path d="M3195 4439 c-168 -21 -366 -100 -496 -198 -94 -71 -209 -195 -209
-225 0 -28 37 -74 60 -77 38 -4 54 6 117 72 246 259 603 350 938 238 137 -46
224 -100 347 -217 97 -93 112 -103 136 -97 32 8 58 30 65 54 8 32 -19 74 -93
148 -175 174 -386 275 -630 303 -97 11 -137 11 -235 -1z"/>
<path d="M2327 3748 c-9 -7 -21 -26 -27 -41 -14 -38 -14 -574 1 -615 11 -33
56 -56 87 -45 48 17 52 30 52 160 l0 123 79 0 c96 0 131 20 131 76 0 59 -26
74 -125 74 l-85 0 0 65 0 65 89 0 c74 0 92 3 115 21 33 26 36 79 6 109 -18 18
-33 20 -163 20 -99 0 -148 -4 -160 -12z"/>
<path d="M2841 3734 c-20 -26 -21 -38 -21 -336 l0 -309 25 -24 c13 -14 36 -25
50 -25 14 0 37 11 50 25 23 22 25 32 25 112 l1 88 62 -70 c148 -167 172 -181
222 -130 41 40 33 65 -54 166 l-79 93 51 30 c121 73 142 231 44 335 -55 58
-96 71 -234 71 -120 0 -122 0 -142 -26z m264 -149 c54 -53 14 -115 -80 -123
l-55 -4 0 76 0 76 55 0 c46 0 60 -4 80 -25z"/>
<path d="M3456 3739 l-26 -20 0 -319 0 -319 26 -20 c24 -19 40 -21 164 -21
124 0 140 2 164 21 33 26 36 79 6 109 -17 17 -33 20 -115 20 l-95 0 0 70 0 70
88 0 c102 0 122 12 122 72 0 56 -27 72 -126 77 l-84 3 0 64 0 64 93 0 c85 0
96 2 115 23 28 30 29 80 2 107 -18 18 -33 20 -164 20 -130 0 -146 -2 -170 -21z"/>
<path d="M3985 3735 l-25 -24 0 -311 0 -311 25 -24 c23 -24 29 -25 168 -25
123 0 148 3 166 18 32 26 37 72 11 105 -21 26 -24 27 -121 27 l-100 0 3 68 3
67 93 5 c78 4 96 8 108 24 19 27 18 69 -5 97 -16 20 -29 23 -110 27 l-91 4 0
64 0 64 94 0 c106 0 131 12 142 67 5 26 1 37 -19 57 -26 26 -29 26 -172 26
-142 0 -147 -1 -170 -25z"/>
<path d="M2528 2854 c-31 -16 -44 -50 -33 -85 11 -33 160 -179 234 -229 320
-215 715 -243 1056 -75 124 61 251 157 320 242 43 52 53 82 39 118 -7 16 -54
45 -75 45 -6 0 -50 -39 -98 -86 -191 -191 -393 -277 -651 -277 -251 0 -461 91
-647 280 -45 46 -90 83 -100 83 -10 -1 -30 -7 -45 -16z"/>
<path d="M3540 1440 c-27 -27 -27 -83 2 -110 21 -19 33 -20 385 -20 l364 0 24
25 c30 30 32 64 4 99 l-20 26 -370 0 c-356 0 -370 -1 -389 -20z"/>
<path d="M480 1103 c-8 -3 -23 -12 -32 -21 -16 -14 -18 -42 -18 -313 l0 -298
26 -20 c26 -21 35 -21 591 -21 l565 0 29 30 30 29 -3 285 c-3 282 -3 286 -26
308 l-23 23 -562 2 c-309 1 -569 -1 -577 -4z m1038 -336 l2 -187 -472 2 -473
3 -3 175 c-1 96 0 180 2 187 4 11 98 13 473 11 l468 -3 3 -188z"/>
<path d="M3540 980 c-30 -30 -27 -83 7 -110 26 -20 31 -20 589 -18 618 3 587
0 600 63 4 22 0 38 -16 58 l-21 27 -570 0 c-556 0 -569 0 -589 -20z"/>
<path d="M3540 520 c-27 -27 -26 -81 1 -106 20 -18 43 -19 373 -22 222 -2 363
1 380 7 46 18 58 88 20 125 -13 14 -62 16 -385 16 -356 0 -370 -1 -389 -20z"/>
</g>
</svg>
