<?xml version="1.0" standalone="no"?>
<!DOCTYPE svg PUBLIC "-//W3C//DTD SVG 20010904//EN"
 "http://www.w3.org/TR/2001/REC-SVG-20010904/DTD/svg10.dtd">
<svg version="1.0" xmlns="http://www.w3.org/2000/svg"
 width="512.000000pt" height="512.000000pt" viewBox="0 0 512.000000 512.000000"
 preserveAspectRatio="xMidYMid meet">

<g transform="translate(0.000000,512.000000) scale(0.100000,-0.100000)"
fill="#000000" stroke="none">
<path d="M880 4707 c-49 -16 -133 -102 -148 -153 -7 -26 -12 -108 -12 -218 l0
-176 -56 0 c-87 0 -133 -18 -189 -75 -71 -70 -91 -145 -63 -239 16 -55 99
-138 154 -154 23 -7 67 -12 98 -12 l56 0 0 -176 c0 -110 5 -192 12 -218 13
-45 105 -146 132 -146 14 0 16 -52 16 -488 0 -570 -1 -562 84 -648 107 -106
267 -112 379 -14 86 76 91 97 97 397 l5 263 33 32 c28 28 39 33 82 33 42 0 54
-5 80 -31 25 -25 33 -43 41 -100 13 -89 40 -144 96 -194 112 -98 272 -92 379
14 74 75 84 114 84 334 0 108 5 190 12 216 16 55 99 138 154 154 31 9 258 12
916 12 993 0 935 -5 1011 80 24 26 49 66 55 88 8 26 12 127 12 296 l0 256 80
0 80 0 0 -450 0 -449 -42 -12 c-445 -118 -1836 -494 -1871 -506 -93 -30 -167
-127 -167 -220 l0 -43 -175 0 c-173 0 -176 0 -200 -25 -33 -32 -33 -78 0 -110
13 -14 31 -25 39 -25 13 0 16 -78 18 -648 l3 -648 37 -76 c45 -91 103 -147
196 -191 61 -29 76 -32 162 -32 86 0 101 3 162 32 93 44 151 100 196 191 l37
76 3 648 c2 570 5 648 18 648 8 0 26 11 39 25 33 32 33 78 0 110 -24 25 -27
25 -200 25 l-175 0 0 29 c0 72 -40 59 1005 340 528 142 975 266 992 274 17 9
42 31 55 49 l23 33 0 507 c0 496 0 507 -21 534 -44 60 -67 69 -185 72 l-109 4
0 255 c0 169 -4 269 -12 295 -6 22 -31 62 -55 88 -78 87 76 80 -1777 79 -1166
-1 -1651 -4 -1676 -12z m314 -159 c55 -16 138 -99 154 -154 7 -26 12 -108 12
-216 0 -220 10 -259 84 -334 107 -106 267 -112 379 -14 56 50 83 105 96 194 8
57 16 75 41 100 26 26 38 31 80 31 43 0 54 -5 82 -33 l33 -32 5 -263 c5 -249
6 -264 28 -309 81 -164 299 -208 435 -88 86 76 91 97 97 397 l5 263 33 32 c28
28 39 33 82 33 43 0 54 -5 82 -33 l33 -32 5 -143 c7 -166 22 -211 97 -277 112
-98 272 -92 379 14 79 79 84 105 84 414 0 171 4 268 12 296 16 55 99 138 154
154 27 8 120 12 273 12 l232 0 24 -25 25 -24 0 -591 0 -591 -25 -24 -24 -25
-1631 0 -1631 0 -24 25 -25 24 0 591 0 591 25 24 c23 24 31 25 136 25 61 0
130 -5 153 -12z m2207 -60 l-36 -72 -5 -293 -5 -293 -33 -32 c-28 -28 -39 -33
-82 -33 -43 0 -54 5 -82 33 l-33 32 -5 143 c-5 121 -9 149 -29 189 -44 91
-150 158 -251 158 -101 0 -207 -66 -252 -158 -22 -45 -23 -60 -28 -309 l-5
-263 -33 -32 c-28 -28 -39 -33 -82 -33 -43 0 -54 5 -82 33 l-33 32 -5 263 c-5
249 -6 264 -28 309 -84 171 -318 210 -449 76 -51 -52 -73 -102 -83 -187 -7
-52 -14 -70 -39 -95 -27 -26 -39 -31 -81 -31 -43 0 -54 5 -82 33 l-33 32 -5
213 -5 213 -36 72 -35 72 996 0 996 0 -35 -72z m-2681 -568 l0 -80 -55 0 c-67
0 -105 29 -105 80 0 51 38 80 105 80 l55 0 0 -80z m1401 -872 l-36 -72 -5
-213 -5 -213 -33 -32 c-28 -28 -39 -33 -82 -33 -42 0 -54 5 -80 31 -25 25 -33
43 -41 100 -13 89 -40 144 -96 194 -105 92 -261 92 -366 0 -86 -76 -91 -97
-97 -397 l-5 -263 -33 -32 c-28 -28 -39 -33 -82 -33 -43 0 -54 5 -82 33 l-33
32 -3 485 -3 485 559 0 558 0 -35 -72z m679 -1664 c0 -455 -3 -627 -12 -658
-26 -86 -136 -166 -228 -166 -92 0 -202 80 -228 166 -9 31 -12 203 -12 658 l0
616 240 0 240 0 0 -616z"/>
</g>
</svg>
