<?xml version="1.0" standalone="no"?>
<!DOCTYPE svg PUBLIC "-//W3C//DTD SVG 20010904//EN"
 "http://www.w3.org/TR/2001/REC-SVG-20010904/DTD/svg10.dtd">
<svg version="1.0" xmlns="http://www.w3.org/2000/svg"
 width="512.000000pt" height="512.000000pt" viewBox="0 0 512.000000 512.000000"
 preserveAspectRatio="xMidYMid meet">

<g transform="translate(0.000000,512.000000) scale(0.100000,-0.100000)"
fill="#000000" stroke="none">
<path d="M2032 4948 c-14 -7 -27 -28 -36 -57 -7 -26 -33 -84 -57 -130 -37 -70
-44 -92 -44 -141 0 -50 7 -71 48 -149 26 -49 47 -102 47 -115 0 -14 -21 -66
-47 -115 -56 -107 -63 -170 -24 -202 13 -10 35 -19 50 -19 31 0 71 36 71 64 0
10 23 63 50 118 69 139 69 174 -2 315 l-53 103 53 103 c63 125 70 182 26 216
-29 23 -48 25 -82 9z"/>
<path d="M2706 4939 c-14 -11 -26 -30 -26 -41 0 -12 -23 -67 -51 -123 -70
-140 -70 -170 1 -312 l52 -104 -51 -105 c-53 -108 -64 -161 -42 -202 25 -48
109 -39 125 13 5 17 31 76 59 132 68 140 69 178 4 305 -26 51 -47 106 -47 121
0 15 18 60 39 100 68 125 73 199 15 226 -35 16 -47 14 -78 -10z"/>
<path d="M3385 4935 c-14 -13 -25 -33 -25 -43 0 -11 -22 -63 -50 -117 -43 -84
-50 -106 -50 -156 0 -50 7 -71 50 -153 28 -52 50 -101 50 -109 0 -7 -22 -57
-50 -111 -38 -74 -50 -109 -50 -142 0 -52 26 -84 68 -84 42 0 68 24 81 74 6
24 30 79 53 123 37 68 43 86 42 138 0 51 -7 73 -47 152 -26 51 -47 102 -47
113 0 11 21 62 47 113 56 111 64 176 24 208 -32 26 -67 24 -96 -6z"/>
<path d="M1432 3900 c-38 -9 -68 -34 -88 -72 -20 -38 -20 -734 0 -760 31 -41
113 -37 130 7 3 9 6 167 6 351 l0 334 383 -2 382 -3 3 -172 2 -172 -37 -6
c-191 -33 -316 -105 -368 -210 -19 -37 -20 -66 -23 -400 -4 -430 -2 -454 43
-504 l33 -36 133 -3 c145 -4 172 3 187 48 11 32 -7 84 -33 94 -9 3 -61 6 -116
6 l-99 0 0 351 c0 396 0 395 72 440 81 50 142 64 278 64 138 0 223 -21 291
-71 59 -43 58 -37 59 -426 l0 -358 -103 0 c-90 0 -106 -3 -125 -20 -30 -28
-29 -80 2 -109 23 -22 30 -22 159 -19 135 3 136 3 166 32 17 17 36 46 41 65 6
21 10 192 10 402 0 423 -3 442 -75 514 -68 69 -150 105 -317 140 l-28 5 0 175
0 175 760 0 760 0 0 -938 0 -937 -50 -18 c-27 -10 -69 -33 -94 -52 -44 -33
-44 -33 -62 -14 -10 11 -47 34 -83 52 -58 28 -75 32 -151 32 -98 0 -156 -18
-221 -70 l-43 -33 -40 34 c-114 98 -325 95 -440 -6 l-36 -32 -37 32 c-81 72
-207 98 -317 66 -60 -18 -121 -51 -145 -80 -12 -14 -17 -13 -51 14 -72 57
-126 75 -225 75 -82 0 -97 -3 -156 -32 -36 -18 -73 -41 -83 -52 -18 -19 -18
-19 -62 14 -25 19 -67 42 -94 52 l-50 18 0 455 c0 445 0 457 -20 478 -30 32
-82 30 -109 -4 -20 -26 -21 -38 -21 -339 l0 -313 -91 35 c-103 38 -262 79
-348 89 -46 5 -60 3 -79 -12 -49 -41 -142 -374 -158 -570 l-7 -81 -136 -7
c-206 -9 -399 -55 -422 -98 -16 -29 -4 -148 27 -265 29 -114 81 -242 134 -336
l39 -67 -103 0 c-57 0 -117 -5 -133 -10 -51 -18 -55 -37 -51 -256 3 -177 5
-204 24 -245 31 -66 78 -114 142 -146 l57 -28 1159 -3 c1261 -3 1194 -5 1215
51 10 28 -5 74 -29 87 -12 6 -433 10 -1156 10 -1136 0 -1138 0 -1181 21 -70
34 -83 70 -83 234 l0 135 2410 0 2410 0 0 -135 c0 -164 -14 -204 -83 -236 -40
-18 -81 -19 -1044 -19 -990 0 -1003 0 -1023 -20 -30 -30 -27 -83 7 -109 l26
-21 1021 2 1021 3 57 28 c64 32 111 80 142 146 19 41 21 68 24 245 4 219 0
238 -51 256 -20 6 -258 10 -699 10 -533 0 -668 3 -661 13 4 6 10 59 13 116 l5
104 40 12 c182 54 305 222 305 416 l0 57 317 4 c293 4 323 6 383 26 164 55
296 198 335 363 22 94 22 1064 0 1158 -45 190 -209 346 -399 380 -34 6 -185
11 -347 11 l-288 0 -3 160 -3 160 -31 31 c-17 16 -48 34 -70 39 -48 12 -2485
11 -2532 0z m3326 -574 c91 -42 165 -125 192 -214 20 -65 21 -88 18 -592 l-3
-525 -29 -62 c-31 -68 -98 -138 -162 -171 -71 -36 -135 -42 -424 -42 l-280 0
0 100 0 100 291 0 c276 0 293 1 328 21 20 11 45 32 56 47 19 26 20 45 23 546
l3 519 -25 37 c-44 68 -58 70 -385 70 l-291 0 0 101 0 100 313 -3 312 -3 63
-29z m-138 -786 l0 -470 -275 0 -275 0 0 470 0 470 275 0 275 0 0 -470z
m-3612 -430 c90 -23 196 -58 270 -90 l52 -22 0 -272 c0 -212 3 -285 15 -331
37 -143 148 -258 290 -300 l40 -12 5 -104 c3 -57 9 -110 13 -117 7 -9 -70 -12
-367 -12 l-375 0 -27 46 c-154 262 -174 755 -48 1154 17 55 30 80 40 80 9 0
50 -9 92 -20z m1010 -396 c29 -14 52 -29 52 -34 0 -4 19 -28 43 -54 61 -65 81
-63 153 18 61 70 108 96 175 96 63 0 109 -25 175 -95 80 -86 94 -86 169 -1 61
70 109 96 175 96 66 0 114 -26 175 -96 75 -85 89 -85 169 1 67 71 113 95 178
95 64 -1 119 -30 164 -88 71 -91 110 -93 173 -9 22 28 54 60 71 71 l32 18 -4
-153 c-3 -149 -4 -156 -33 -208 -31 -56 -88 -106 -148 -128 -24 -8 -292 -11
-1037 -11 -745 0 -1013 3 -1037 11 -60 22 -117 72 -148 128 -29 52 -30 59 -33
208 l-4 153 32 -18 c17 -11 49 -42 70 -71 64 -83 107 -83 169 1 71 96 167 121
269 70z m-1373 -321 c16 -195 44 -333 95 -459 16 -41 30 -77 30 -80 0 -2 -67
-4 -150 -4 l-149 0 -39 58 c-85 125 -177 353 -189 467 l-6 52 49 12 c81 19
164 28 261 30 l91 1 7 -77z m2925 -397 c0 -79 -2 -86 -29 -115 l-29 -31 -809
0 c-750 0 -810 2 -829 18 -35 28 -44 56 -44 136 l0 76 870 0 870 0 0 -84z"/>
<path d="M2150 3028 c-37 -40 -21 -97 34 -118 36 -13 235 -13 275 1 53 19 69
81 31 119 -18 18 -33 20 -170 20 -141 0 -150 -1 -170 -22z"/>
<path d="M2155 2715 c-14 -13 -25 -36 -25 -50 0 -14 11 -37 25 -50 23 -24 28
-25 169 -25 144 0 145 0 165 26 28 35 26 69 -4 99 -23 24 -29 25 -165 25 -136
0 -142 -1 -165 -25z"/>
</g>
</svg>
